<?xml version="1.0" encoding="utf-8"?>
<!-- Generator: Adobe Illustrator 20.1.0, SVG Export Plug-In . SVG Version: 6.00 Build 0)  -->
<svg version="1.1" id="Layer_1" xmlns="http://www.w3.org/2000/svg" xmlns:xlink="http://www.w3.org/1999/xlink" x="0px" y="0px"
	 viewBox="0 0 192 76" style="enable-background:new 0 0 192 76;" xml:space="preserve">
<style type="text/css">
	.st0{fill:#F58220;}
	.st1{fill:#026D39;}
</style>
<path class="st0" d="M110.6,66.8l2.7-12.8c0-0.1,0-0.3,0-0.4s0-0.3,0-0.4c0-0.3,0-0.7-0.1-1h4.1l-0.2,1.7l1.4-1.1
	c0.2-0.2,0.5-0.3,0.7-0.5c0.2-0.1,0.5-0.2,0.8-0.1h1.5c0.4,0,0.7,0,1,0.3c0.2,0.2,0.3,0.4,0.3,0.6l-2.5,2.9v-0.2
	c0-0.9-0.5-1.3-1.4-1.3c-0.5,0-1,0.2-1.3,0.5c-0.4,0.3-0.7,0.8-0.8,1.3l-2.2,10.5H110.6z M126.1,66.8h5.4v-1.7c-1,0.1-2,0.2-3,0.3
	c-0.8,0.1-1.7-0.1-2.3-0.6c-0.5-0.5-0.7-1.2-0.6-2c0-0.5,0-1.1,0.1-1.6c0.1-0.6,0.2-1.3,0.3-2h8c0.2-1,0.4-2,0.4-3.1
	c0.1-1.2-0.3-2.4-1.1-3.2c-1-0.7-2.1-1-3.3-0.9c-0.9,0-1.9,0.1-2.8,0.3c-0.8,0.2-1.5,0.6-2.2,1.2c-0.7,0.6-1.2,1.4-1.6,2.2
	c-0.5,1.1-0.9,2.3-1.1,3.5c-0.2,1-0.3,2-0.3,3c-0.1,1.2,0.3,2.4,1,3.4C123.6,66.5,124.8,67,126.1,66.8L126.1,66.8z M130.5,57.3h-4.1
	c0.2-1,0.5-2,1.1-2.9c0.4-0.6,1-1,1.7-1c0.5-0.1,1,0.2,1.2,0.6c0.2,0.4,0.3,0.9,0.3,1.4c0,0.3,0,0.7-0.1,1
	C130.6,56.8,130.6,57.1,130.5,57.3L130.5,57.3z M141.9,66.8l0.2-1.7l-1.2,1.2c-0.3,0.3-0.7,0.5-1.1,0.5h-2.1
	c-0.8,0.1-1.6-0.1-2.4-0.5c-0.6-0.5-0.9-1.2-0.8-1.9c0-0.8,0.1-1.6,0.3-2.4c0.2-1,0.6-1.9,1.1-2.7c0.5-0.7,1.2-1.2,2-1.6
	c0.9-0.4,1.8-0.7,2.7-0.8c1.1-0.1,2.2-0.2,3.3-0.2l0.2-0.8c0-0.1,0.1-0.2,0.1-0.3v-0.3c0-0.4-0.2-0.8-0.5-1c-0.5-0.3-1-0.4-1.6-0.3
	h-1.6c-0.7,0-1.3,0.1-1.9,0.4v-2.1h6.2c2.1,0,3.1,0.8,3.1,2.4c0,0.3,0,0.7-0.1,1l-2,9.3c-0.1,0.3-0.1,0.5-0.1,0.8
	c0,0.2,0,0.4,0.1,0.5c0.1,0.2,0.1,0.4,0.2,0.6L141.9,66.8z M143.5,58.4c-1,0-2,0.2-2.9,0.6c-0.8,0.4-1.4,1.3-1.6,2.2l-0.4,1.8
	c0,0.1,0,0.2,0,0.3s0,0.2,0,0.2c0,0.4,0.1,0.8,0.4,1c0.3,0.2,0.7,0.3,1.1,0.3c0.7,0,1.3-0.2,1.8-0.7c0.4-0.4,0.7-1,0.8-1.6
	L143.5,58.4z"/>
<path class="st0" d="M157.9,66.8h-6.6c-0.7,0-1.3-0.1-1.9-0.4c-0.5-0.4-0.8-1-0.7-1.6c0-0.3,0.1-0.7,0.1-1l1.9-8.9
	c0.1-1.6,1.5-2.8,3.1-2.7h7.4l-0.4,1.9c-1.5,0-3.1,0-4.6,0.1c-1,0-1.8,0.8-1.9,1.7l-1.4,6.7c-0.2,0.9-0.1,1.7,2,1.9
	c0.6,0.1,1.1,0.1,1.7,0c1.9-0.1,2.1-0.6,2.4-2l1.5-6.7v-0.2l0.9-4.4l0.7-3.3c0-0.2,0.1-0.3,0.1-0.5v-0.2l0,0
	c0.1-0.4,0.2-0.8,0.4-1.1c0.2-0.4,0.5-0.8,0.9-1.2c0.4-0.3,0.8-0.5,1.3-0.6c0.6-0.1,1.2-0.2,1.8-0.2c1.1,0,2.3,0,3.4,0.2
	c0.2,0.1,0.2,0.3,0.2,0.7l-0.3,1.6c-0.2-0.1-0.4-0.2-0.7-0.3c-0.2-0.1-0.4-0.1-0.6-0.1h-0.3c-0.6,0-1.1,0.1-1.6,0.4
	c-0.3,0.3-0.5,0.6-0.7,1L162.6,64l0,0c-0.1,0.3-0.1,0.6-0.3,0.8c-0.3,0.7-0.8,1.3-1.4,1.6c-0.7,0.3-1.4,0.4-2.1,0.4H157.9
	L157.9,66.8z"/>
<path class="st0" d="M164.1,75.2l0.5-2.4c0.2,0.1,0.4,0.2,0.7,0.3c0.2,0.1,0.4,0.1,0.6,0.1h3.2c1.2,0.2,2.3-0.6,2.5-1.8
	c0-0.1,0-0.2,0-0.3l1.3-6l-1.3,1.3c-0.1,0.2-0.3,0.3-0.5,0.4c-0.1,0.1-0.3,0.1-0.4,0.1h-3.4c-0.5,0-1-0.1-1.4-0.4
	c-0.3-0.3-0.5-0.7-0.5-1.2c0-0.1,0-0.2,0-0.3c0-0.1,0-0.2,0-0.3l2.4-10.7c0-0.1,0-0.2,0-0.3v-0.9c0-0.2,0-0.4,0-0.5h4.2l-2.3,10.8
	c0,0.1,0,0.2,0,0.2c0,0.1,0,0.1,0,0.2c0,0.4,0.1,0.7,0.4,1c0.3,0.3,0.7,0.4,1.1,0.4c1.1,0,2-0.8,2.2-1.8l2.3-10.8h3.8l-4.1,19.3
	c-0.1,0.6-0.3,1.2-0.6,1.8c-0.2,0.4-0.5,0.8-0.9,1.2c-0.4,0.3-0.8,0.5-1.3,0.6c-0.6,0.1-1.2,0.2-1.8,0.2L164.1,75.2z"/>
<circle class="st0" cx="152" cy="69.7" r="1.6"/>
<circle class="st0" cx="158.5" cy="69.7" r="1.6"/>
<polygon class="st0" points="107.2,65 67.3,65 67.3,67.4 106.7,67.4 106.7,67.3 "/>
<path class="st0" d="M108.5,58.6H60.3V61H108l0.1-0.4v-0.2L108.5,58.6z"/>
<path class="st0" d="M109.9,52.3H51.4v2.4h58l0.4-2C109.8,52.5,109.8,52.4,109.9,52.3z"/>
<path class="st1" d="M36.4,21.5c0.1-4.1-1.2-8.2-3.8-11.4C30,6.9,26.1,5.2,22,4.9C21,4.8,20,5,19,5h-1.9h-4.8H4.4L1.7,4.6L2,6.7V10
	v5.1V32l-0.1,6.5l-0.2,3.2L4.5,42h3l4.4-0.2l6.6-0.4l0.6-0.1c2.3-0.1,4.6-0.7,6.7-1.7c2.2-1.1,4.2-2.6,5.8-4.5
	C34.8,31.3,36.6,26.5,36.4,21.5z M19,38.1c-1.4,0.4-2.8,0.9-4.2,0.9H10v-8l-0.1-8l0.1-7.9V8h4.4c1.5,0,3.1-0.1,4.6,0.2
	c4.9,1.2,8.9,4.7,8.9,14C27.9,31.6,24.7,36.6,19,38.1z"/>
<path class="st1" d="M70.7,38.7l0.6-3.2l1.1-8l1.6-12l0.6-5.1c0.3-1.9,0.6-3.8,0.8-5.7c1.5,0.2,3,0.2,4.5,0l12.1,25.3
	c4.1-8.4,8.2-16.8,12.4-25.3c1.5,0.1,3.1,0.1,4.6-0.2c1.5,12.3,2.9,24.5,4.5,36.7c-2.8-0.2-5.7-0.2-8.5,0.1l-2.5-24.6l-5.1,10.8
	l-4.9,10l-1.7,3.8h-2L77.2,16.8c-0.8,8.1-1.6,16.2-2.3,24.4c-1.6-0.2-3.1-0.2-4.7,0L70.7,38.7z"/>
<path class="st1" d="M145.2,15.7c2.4,0.2,4.8,0.2,7.2,0l0.1,6.4c2.2-4.2,2.7-7,8.9-7.1c-0.4,2.4-0.4,4.8-0.2,7.3l-0.6,0.5
	c0.1-0.2-7.1-2.3-7.9,3.9c0,0.4,0,0.7,0,1.1v0.9c0,4.2,0.1,8.4,0.4,12.6h-7.9C145.5,35.5,146.3,21,145.2,15.7z"/>
<path class="st1" d="M167.8,16l-0.2-6.6l7.6-3.4l-0.1,2.2l-0.2,2.6v5.4c1.5,0.1,3.1,0,4.6-0.4c-0.2,1-0.2,2,0,2.9l-4.9-0.1v15.7
	c0,1.9,0.1,3.3,0.6,4c1,1.4,3.1,1.4,4.7,0.6l-0.2,2.2l-1.1,0.4c-4.4,1.6-10.3,1.1-10.9-4.3c-0.1-0.7-0.1-1.4-0.1-2.2V18.5
	c-1.2,0.1-2.3,0.2-3.5,0.1c0.2-0.9,0.2-1.9,0-2.8L167.8,16z"/>
<polygon class="st1" points="45.9,16 56.2,16 56.5,16.7 45.6,16.7 "/>
<polygon class="st1" points="44.6,19.1 57.5,19.1 57.8,19.8 44.3,19.8 "/>
<polygon class="st1" points="43.3,22.2 58.9,22.2 59.2,23.1 42.9,23.1 "/>
<polygon class="st1" points="41.9,25.5 60.2,25.5 60.6,26.4 41.5,26.4 "/>
<polygon class="st1" points="40.5,28.8 61.6,28.8 62.1,29.9 40,29.9 "/>
<polygon class="st1" points="39,32.3 63.1,32.3 63.6,33.5 38.5,33.5 "/>
<polygon class="st1" points="37.5,35.9 64.6,35.9 65.2,37.2 36.9,37.2 "/>
<polygon class="st1" points="35.9,39.7 66.2,39.7 66.8,41.2 35.3,41.2 "/>
<path class="st1" d="M47.6,3.9C48.1,3.5,48.7,3.6,49,4c0.3,0.4,0.2,1.1-0.2,1.4c-0.4,0.3-1.1,0.2-1.4-0.2c0,0,0,0,0,0
	C47.1,4.8,47.2,4.2,47.6,3.9L47.6,3.9z M54.5,3.9C54,3.5,53.4,3.6,53.1,4c-0.3,0.4-0.3,1.1,0.2,1.4c0.4,0.3,1.1,0.3,1.4-0.2
	c0,0,0,0,0,0C55,4.8,54.9,4.2,54.5,3.9z M51.1,1.2c-1.4,7.1-0.4,5.7-7.1,5.1c6.5,3.1,5.9,1.6,2.7,8.3c2.8-2.3,4.2-4.2,4.4-6.3
	c0.1,2.1,1.5,4,4.4,6.3c-3.2-6.7-3.8-5.2,2.7-8.3C51.5,6.9,52.4,8.3,51.1,1.2z"/>
<path class="st1" d="M138.9,39.3c-1.8-0.7-1.9-2.4-1.9-4v-11c0-4.2-1-7.8-5.4-8.9c-1.5-0.4-2.7-0.6-4.2-0.5c-3.2,0.4-6.3,1.6-9,3.5
	l0.7,3.3l0.6-0.1c2.7-2.7,5.7-3.1,8-2.4c3.8,1.2,5.5,5.6,0,7.5c-1,0.2-1.7,0.4-2.6,0.6c-4.2,0.6-8.3,2.8-8.3,7.5
	c0,3.2,1.6,6,5.2,6.9c1.9,0.5,3.8,0.4,5.8-0.4c1.3-0.6,2.7-1.6,3.5-2.9c0.3-0.4,1.9,6.8,10,2.4l-0.1-1.3
	C140.5,39.5,139.5,39.5,138.9,39.3z M127.7,38.5c-0.2,0-0.2-0.1-0.4-0.1c-2.2,0-3.3-1.5-3.2-4.5c0.1-2.9,1.7-4,3.6-4.9
	c1.3-0.6,2.8-0.1,3.6-1.1h0.1C131.1,34,131.7,38.2,127.7,38.5z"/>
<g>
	<path class="st1" d="M180.7,6.1c0-0.9,0.2-1.7,0.7-2.5c0.4-0.8,1.1-1.4,1.8-1.8c0.8-0.4,1.6-0.7,2.5-0.7c0.9,0,1.7,0.2,2.5,0.7
		c0.8,0.4,1.4,1.1,1.8,1.8c0.4,0.8,0.7,1.6,0.7,2.5c0,0.9-0.2,1.7-0.6,2.5c-0.4,0.8-1,1.4-1.8,1.8c-0.8,0.5-1.6,0.7-2.5,0.7
		c-0.9,0-1.8-0.2-2.5-0.7s-1.4-1.1-1.8-1.8C180.9,7.8,180.7,7,180.7,6.1z M181.4,6.1c0,0.8,0.2,1.5,0.6,2.2s0.9,1.2,1.6,1.6
		c0.7,0.4,1.4,0.6,2.1,0.6c0.8,0,1.5-0.2,2.1-0.6s1.2-0.9,1.6-1.6s0.6-1.4,0.6-2.2c0-0.8-0.2-1.5-0.6-2.1c-0.4-0.7-0.9-1.2-1.6-1.6
		c-0.7-0.4-1.4-0.6-2.2-0.6c-0.8,0-1.5,0.2-2.1,0.6c-0.7,0.4-1.2,0.9-1.6,1.6C181.6,4.6,181.4,5.3,181.4,6.1z"/>
</g>
<g>
	<path class="st1" d="M147.8,10c0.1,0,0.2,0.1,0.4,0.1c0.1,0.1,0.2,0.2,0.4,0.3s0.2,0.3,0.3,0.5c0.1,0.2,0.1,0.4,0.1,0.7
		c0,0.3-0.1,0.6-0.2,0.8c-0.1,0.2-0.2,0.4-0.4,0.5c-0.2,0.1-0.4,0.2-0.6,0.3c-0.2,0.1-0.4,0.1-0.6,0.1h-1.7V6.9h1.5
		c0.2,0,0.4,0,0.6,0.1c0.2,0,0.4,0.1,0.6,0.2c0.2,0.1,0.3,0.3,0.4,0.5c0.1,0.2,0.2,0.5,0.2,0.8c0,0.2,0,0.4-0.1,0.5
		c0,0.2-0.1,0.3-0.2,0.4c-0.1,0.1-0.2,0.2-0.3,0.3C148,9.8,147.9,9.9,147.8,10L147.8,10z M147.9,8.6c0-0.2,0-0.4-0.1-0.5
		c-0.1-0.1-0.1-0.2-0.2-0.3c-0.1-0.1-0.2-0.1-0.3-0.2c-0.1,0-0.3,0-0.4,0h-0.7v2.1h0.7c0.1,0,0.2,0,0.4-0.1s0.2-0.1,0.3-0.2
		c0.1-0.1,0.2-0.2,0.2-0.3C147.9,9,147.9,8.8,147.9,8.6z M148.1,11.5c0-0.2,0-0.4-0.1-0.6c-0.1-0.2-0.2-0.3-0.3-0.4
		c-0.1-0.1-0.2-0.2-0.4-0.2c-0.1,0-0.3-0.1-0.4-0.1h-0.7v2.3h0.8c0.2,0,0.3,0,0.4-0.1s0.3-0.1,0.4-0.2c0.1-0.1,0.2-0.2,0.2-0.3
		C148,11.9,148.1,11.7,148.1,11.5z"/>
	<path class="st1" d="M149.9,13.3V6.9h2.7v0.7h-1.9v2h1.8v0.7h-1.8v2.2h2v0.7H149.9z"/>
	<path class="st1" d="M155.1,7.6v5.7h-0.8V7.6h-1.2V6.9h3.2v0.7H155.1z"/>
	<path class="st1" d="M159.6,13.3l-0.4-1.5h-1.8l-0.4,1.5h-0.8l1.6-6.4h1.1l1.6,6.4H159.6z M158.3,7.7L158.3,7.7l-0.8,3.5h1.6
		L158.3,7.7z"/>
</g>
<g>
	<path class="st1" d="M184,7.9h-0.7V5h-0.9V4.4h2.6V5H184V7.9z"/>
	<path class="st1" d="M186.9,7.9l-0.8-2.7h0c0,0.6,0,0.9,0,1.1v1.6h-0.7V4.4h1l0.8,2.6h0l0.9-2.6h1v3.5h-0.7V6.2c0-0.1,0-0.2,0-0.3
		c0-0.1,0-0.4,0-0.8h0l-0.9,2.7H186.9z"/>
</g>
</svg>
